<mxfile host="app.diagrams.net" modified="2023-06-16T10:10:01.639Z" agent="Mozilla/5.0 (Windows NT 10.0; Win64; x64) AppleWebKit/537.36 (KHTML, like Gecko) Chrome/114.0.0.0 Safari/537.36" etag="CYcGAFCqAFIPL5h4au9j" version="21.4.0" type="github">
  <diagram name="第 1 页" id="u3-Xx4rTXrdRs5JP2vSr">
    <mxGraphModel dx="1302" dy="684" grid="0" gridSize="10" guides="1" tooltips="1" connect="1" arrows="1" fold="1" page="0" pageScale="1" pageWidth="827" pageHeight="1169" math="0" shadow="0">
      <root>
        <mxCell id="0" />
        <mxCell id="1" parent="0" />
        <mxCell id="-oYCFZrdIqtFmKI61Krr-77" value="" style="ellipse;whiteSpace=wrap;html=1;aspect=fixed;fillColor=#fff2cc;strokeColor=#d6b656;" vertex="1" parent="1">
          <mxGeometry x="170" y="200" width="40" height="40" as="geometry" />
        </mxCell>
        <mxCell id="-oYCFZrdIqtFmKI61Krr-1" value="" style="endArrow=none;dashed=1;html=1;dashPattern=1 3;strokeWidth=2;rounded=0;" edge="1" parent="1">
          <mxGeometry width="50" height="50" relative="1" as="geometry">
            <mxPoint x="560" y="280" as="sourcePoint" />
            <mxPoint x="560" y="40" as="targetPoint" />
          </mxGeometry>
        </mxCell>
        <mxCell id="-oYCFZrdIqtFmKI61Krr-3" value="" style="endArrow=none;dashed=1;html=1;dashPattern=1 3;strokeWidth=2;rounded=0;" edge="1" parent="1">
          <mxGeometry width="50" height="50" relative="1" as="geometry">
            <mxPoint x="560" y="280" as="sourcePoint" />
            <mxPoint x="800" y="280" as="targetPoint" />
          </mxGeometry>
        </mxCell>
        <mxCell id="-oYCFZrdIqtFmKI61Krr-4" value="" style="endArrow=none;dashed=1;html=1;dashPattern=1 3;strokeWidth=2;rounded=0;" edge="1" parent="1">
          <mxGeometry width="50" height="50" relative="1" as="geometry">
            <mxPoint x="800" y="40" as="sourcePoint" />
            <mxPoint x="800" y="280" as="targetPoint" />
          </mxGeometry>
        </mxCell>
        <mxCell id="-oYCFZrdIqtFmKI61Krr-8" value="" style="ellipse;whiteSpace=wrap;html=1;aspect=fixed;fillColor=#dae8fc;strokeColor=#6c8ebf;" vertex="1" parent="1">
          <mxGeometry x="710" y="90" width="40" height="40" as="geometry" />
        </mxCell>
        <mxCell id="-oYCFZrdIqtFmKI61Krr-9" value="" style="ellipse;whiteSpace=wrap;html=1;aspect=fixed;fillColor=#dae8fc;strokeColor=#6c8ebf;" vertex="1" parent="1">
          <mxGeometry x="590" y="80" width="40" height="40" as="geometry" />
        </mxCell>
        <mxCell id="-oYCFZrdIqtFmKI61Krr-10" value="" style="ellipse;whiteSpace=wrap;html=1;aspect=fixed;fillColor=#dae8fc;strokeColor=#6c8ebf;" vertex="1" parent="1">
          <mxGeometry x="740" y="200" width="40" height="40" as="geometry" />
        </mxCell>
        <mxCell id="-oYCFZrdIqtFmKI61Krr-11" value="" style="endArrow=none;html=1;rounded=0;entryX=0.5;entryY=1;entryDx=0;entryDy=0;exitX=0.25;exitY=0;exitDx=0;exitDy=0;exitPerimeter=0;" edge="1" parent="1" target="-oYCFZrdIqtFmKI61Krr-9">
          <mxGeometry width="50" height="50" relative="1" as="geometry">
            <mxPoint x="630.0000000000002" y="190" as="sourcePoint" />
            <mxPoint x="590" y="240" as="targetPoint" />
          </mxGeometry>
        </mxCell>
        <mxCell id="-oYCFZrdIqtFmKI61Krr-12" value="" style="endArrow=none;html=1;rounded=0;entryX=0.017;entryY=0.354;entryDx=0;entryDy=0;entryPerimeter=0;exitX=1;exitY=0.5;exitDx=0;exitDy=0;" edge="1" parent="1" source="-oYCFZrdIqtFmKI61Krr-9" target="-oYCFZrdIqtFmKI61Krr-8">
          <mxGeometry width="50" height="50" relative="1" as="geometry">
            <mxPoint x="630" y="90" as="sourcePoint" />
            <mxPoint x="700" y="100" as="targetPoint" />
          </mxGeometry>
        </mxCell>
        <mxCell id="-oYCFZrdIqtFmKI61Krr-13" value="" style="ellipse;whiteSpace=wrap;html=1;aspect=fixed;fillColor=#f8cecc;strokeColor=#b85450;" vertex="1" parent="1">
          <mxGeometry x="360" y="50" width="40" height="40" as="geometry" />
        </mxCell>
        <mxCell id="-oYCFZrdIqtFmKI61Krr-14" value="" style="ellipse;whiteSpace=wrap;html=1;aspect=fixed;fillColor=#f8cecc;strokeColor=#b85450;" vertex="1" parent="1">
          <mxGeometry x="390" y="163.75" width="40" height="40" as="geometry" />
        </mxCell>
        <mxCell id="-oYCFZrdIqtFmKI61Krr-15" value="" style="ellipse;whiteSpace=wrap;html=1;aspect=fixed;fillColor=#f8cecc;strokeColor=#b85450;" vertex="1" parent="1">
          <mxGeometry x="450" y="80" width="40" height="40" as="geometry" />
        </mxCell>
        <mxCell id="-oYCFZrdIqtFmKI61Krr-16" value="" style="ellipse;whiteSpace=wrap;html=1;aspect=fixed;fillColor=#f8cecc;strokeColor=#b85450;" vertex="1" parent="1">
          <mxGeometry x="480" y="230" width="40" height="40" as="geometry" />
        </mxCell>
        <mxCell id="-oYCFZrdIqtFmKI61Krr-17" value="" style="ellipse;whiteSpace=wrap;html=1;aspect=fixed;fillColor=#dae8fc;strokeColor=#6c8ebf;" vertex="1" parent="1">
          <mxGeometry x="610" y="190" width="40" height="40" as="geometry" />
        </mxCell>
        <mxCell id="-oYCFZrdIqtFmKI61Krr-18" value="" style="endArrow=none;dashed=1;html=1;dashPattern=1 3;strokeWidth=2;rounded=0;" edge="1" parent="1">
          <mxGeometry width="50" height="50" relative="1" as="geometry">
            <mxPoint x="560" y="40" as="sourcePoint" />
            <mxPoint x="800" y="40" as="targetPoint" />
          </mxGeometry>
        </mxCell>
        <mxCell id="-oYCFZrdIqtFmKI61Krr-22" value="" style="endArrow=none;html=1;rounded=0;entryX=1.022;entryY=0.676;entryDx=0;entryDy=0;entryPerimeter=0;" edge="1" parent="1" source="-oYCFZrdIqtFmKI61Krr-16" target="-oYCFZrdIqtFmKI61Krr-14">
          <mxGeometry width="50" height="50" relative="1" as="geometry">
            <mxPoint x="540" y="290" as="sourcePoint" />
            <mxPoint x="610" y="220" as="targetPoint" />
          </mxGeometry>
        </mxCell>
        <mxCell id="-oYCFZrdIqtFmKI61Krr-24" value="" style="endArrow=none;html=1;rounded=0;exitX=1;exitY=0.5;exitDx=0;exitDy=0;entryX=0;entryY=0.5;entryDx=0;entryDy=0;strokeWidth=3;fillColor=#d80073;strokeColor=#A50040;" edge="1" parent="1" source="-oYCFZrdIqtFmKI61Krr-15" target="-oYCFZrdIqtFmKI61Krr-9">
          <mxGeometry width="50" height="50" relative="1" as="geometry">
            <mxPoint x="540" y="290" as="sourcePoint" />
            <mxPoint x="590" y="240" as="targetPoint" />
          </mxGeometry>
        </mxCell>
        <mxCell id="-oYCFZrdIqtFmKI61Krr-25" value="" style="endArrow=none;html=1;rounded=0;exitX=1;exitY=0;exitDx=0;exitDy=0;entryX=0;entryY=1;entryDx=0;entryDy=0;" edge="1" parent="1" source="-oYCFZrdIqtFmKI61Krr-14" target="-oYCFZrdIqtFmKI61Krr-15">
          <mxGeometry width="50" height="50" relative="1" as="geometry">
            <mxPoint x="540" y="290" as="sourcePoint" />
            <mxPoint x="590" y="240" as="targetPoint" />
          </mxGeometry>
        </mxCell>
        <mxCell id="-oYCFZrdIqtFmKI61Krr-26" value="" style="endArrow=none;html=1;rounded=0;entryX=0.5;entryY=0;entryDx=0;entryDy=0;exitX=0.5;exitY=1;exitDx=0;exitDy=0;" edge="1" parent="1" source="-oYCFZrdIqtFmKI61Krr-13" target="-oYCFZrdIqtFmKI61Krr-14">
          <mxGeometry width="50" height="50" relative="1" as="geometry">
            <mxPoint x="540" y="290" as="sourcePoint" />
            <mxPoint x="590" y="240" as="targetPoint" />
          </mxGeometry>
        </mxCell>
        <mxCell id="-oYCFZrdIqtFmKI61Krr-27" value="" style="endArrow=none;html=1;rounded=0;entryX=0;entryY=0;entryDx=0;entryDy=0;exitX=1;exitY=0.5;exitDx=0;exitDy=0;" edge="1" parent="1" source="-oYCFZrdIqtFmKI61Krr-13" target="-oYCFZrdIqtFmKI61Krr-15">
          <mxGeometry width="50" height="50" relative="1" as="geometry">
            <mxPoint x="540" y="290" as="sourcePoint" />
            <mxPoint x="590" y="240" as="targetPoint" />
          </mxGeometry>
        </mxCell>
        <mxCell id="-oYCFZrdIqtFmKI61Krr-29" value="" style="endArrow=none;html=1;rounded=0;entryX=1;entryY=0.5;entryDx=0;entryDy=0;exitX=0;exitY=0.5;exitDx=0;exitDy=0;" edge="1" parent="1" source="-oYCFZrdIqtFmKI61Krr-10" target="-oYCFZrdIqtFmKI61Krr-17">
          <mxGeometry width="50" height="50" relative="1" as="geometry">
            <mxPoint x="540" y="290" as="sourcePoint" />
            <mxPoint x="590" y="240" as="targetPoint" />
          </mxGeometry>
        </mxCell>
        <mxCell id="-oYCFZrdIqtFmKI61Krr-30" value="" style="endArrow=none;html=1;rounded=0;entryX=0.5;entryY=1;entryDx=0;entryDy=0;exitX=0.356;exitY=0.026;exitDx=0;exitDy=0;exitPerimeter=0;" edge="1" parent="1" source="-oYCFZrdIqtFmKI61Krr-10" target="-oYCFZrdIqtFmKI61Krr-8">
          <mxGeometry width="50" height="50" relative="1" as="geometry">
            <mxPoint x="540" y="290" as="sourcePoint" />
            <mxPoint x="590" y="240" as="targetPoint" />
          </mxGeometry>
        </mxCell>
        <mxCell id="-oYCFZrdIqtFmKI61Krr-31" value="" style="endArrow=none;html=1;rounded=0;entryX=0;entryY=1;entryDx=0;entryDy=0;exitX=1;exitY=0;exitDx=0;exitDy=0;" edge="1" parent="1" source="-oYCFZrdIqtFmKI61Krr-17" target="-oYCFZrdIqtFmKI61Krr-8">
          <mxGeometry width="50" height="50" relative="1" as="geometry">
            <mxPoint x="540" y="290" as="sourcePoint" />
            <mxPoint x="590" y="240" as="targetPoint" />
          </mxGeometry>
        </mxCell>
        <mxCell id="-oYCFZrdIqtFmKI61Krr-33" value="&lt;h2 style=&quot;&quot;&gt;&lt;font style=&quot;font-size: 19px;&quot;&gt;v&lt;/font&gt;&lt;font style=&quot;font-size: 15.8333px;&quot;&gt;&lt;sub&gt;4&lt;/sub&gt;&lt;/font&gt;&lt;/h2&gt;" style="text;html=1;strokeColor=none;fillColor=none;align=center;verticalAlign=middle;whiteSpace=wrap;rounded=0;fontFamily=Comic Sans MS;" vertex="1" parent="1">
          <mxGeometry x="370" y="61.25" width="20" height="17.5" as="geometry" />
        </mxCell>
        <mxCell id="-oYCFZrdIqtFmKI61Krr-43" value="" style="endArrow=none;dashed=1;html=1;dashPattern=1 3;strokeWidth=2;rounded=0;" edge="1" parent="1">
          <mxGeometry width="50" height="50" relative="1" as="geometry">
            <mxPoint x="320" y="280" as="sourcePoint" />
            <mxPoint x="320" y="40" as="targetPoint" />
          </mxGeometry>
        </mxCell>
        <mxCell id="-oYCFZrdIqtFmKI61Krr-44" value="" style="endArrow=none;dashed=1;html=1;dashPattern=1 3;strokeWidth=2;rounded=0;" edge="1" parent="1">
          <mxGeometry width="50" height="50" relative="1" as="geometry">
            <mxPoint x="320" y="280" as="sourcePoint" />
            <mxPoint x="560" y="280" as="targetPoint" />
          </mxGeometry>
        </mxCell>
        <mxCell id="-oYCFZrdIqtFmKI61Krr-45" value="" style="endArrow=none;dashed=1;html=1;dashPattern=1 3;strokeWidth=2;rounded=0;" edge="1" parent="1">
          <mxGeometry width="50" height="50" relative="1" as="geometry">
            <mxPoint x="560" y="40" as="sourcePoint" />
            <mxPoint x="560" y="280" as="targetPoint" />
          </mxGeometry>
        </mxCell>
        <mxCell id="-oYCFZrdIqtFmKI61Krr-46" value="" style="endArrow=none;dashed=1;html=1;dashPattern=1 3;strokeWidth=2;rounded=0;" edge="1" parent="1">
          <mxGeometry width="50" height="50" relative="1" as="geometry">
            <mxPoint x="320" y="40" as="sourcePoint" />
            <mxPoint x="560" y="40" as="targetPoint" />
          </mxGeometry>
        </mxCell>
        <mxCell id="-oYCFZrdIqtFmKI61Krr-47" value="" style="endArrow=none;dashed=1;html=1;dashPattern=1 3;strokeWidth=2;rounded=0;" edge="1" parent="1">
          <mxGeometry width="50" height="50" relative="1" as="geometry">
            <mxPoint x="560" y="520" as="sourcePoint" />
            <mxPoint x="560" y="280" as="targetPoint" />
          </mxGeometry>
        </mxCell>
        <mxCell id="-oYCFZrdIqtFmKI61Krr-48" value="" style="endArrow=none;dashed=1;html=1;dashPattern=1 3;strokeWidth=2;rounded=0;" edge="1" parent="1">
          <mxGeometry width="50" height="50" relative="1" as="geometry">
            <mxPoint x="560" y="520" as="sourcePoint" />
            <mxPoint x="800" y="520" as="targetPoint" />
          </mxGeometry>
        </mxCell>
        <mxCell id="-oYCFZrdIqtFmKI61Krr-49" value="" style="endArrow=none;dashed=1;html=1;dashPattern=1 3;strokeWidth=2;rounded=0;" edge="1" parent="1">
          <mxGeometry width="50" height="50" relative="1" as="geometry">
            <mxPoint x="800" y="280" as="sourcePoint" />
            <mxPoint x="800" y="520" as="targetPoint" />
          </mxGeometry>
        </mxCell>
        <mxCell id="-oYCFZrdIqtFmKI61Krr-50" value="" style="endArrow=none;dashed=1;html=1;dashPattern=1 3;strokeWidth=2;rounded=0;" edge="1" parent="1">
          <mxGeometry width="50" height="50" relative="1" as="geometry">
            <mxPoint x="560" y="280" as="sourcePoint" />
            <mxPoint x="800" y="280" as="targetPoint" />
          </mxGeometry>
        </mxCell>
        <mxCell id="-oYCFZrdIqtFmKI61Krr-51" value="" style="endArrow=none;dashed=1;html=1;dashPattern=1 3;strokeWidth=2;rounded=0;" edge="1" parent="1">
          <mxGeometry width="50" height="50" relative="1" as="geometry">
            <mxPoint x="320" y="520" as="sourcePoint" />
            <mxPoint x="320" y="280" as="targetPoint" />
          </mxGeometry>
        </mxCell>
        <mxCell id="-oYCFZrdIqtFmKI61Krr-52" value="" style="endArrow=none;dashed=1;html=1;dashPattern=1 3;strokeWidth=2;rounded=0;" edge="1" parent="1">
          <mxGeometry width="50" height="50" relative="1" as="geometry">
            <mxPoint x="320" y="520" as="sourcePoint" />
            <mxPoint x="560" y="520" as="targetPoint" />
          </mxGeometry>
        </mxCell>
        <mxCell id="-oYCFZrdIqtFmKI61Krr-53" value="" style="endArrow=none;dashed=1;html=1;dashPattern=1 3;strokeWidth=2;rounded=0;" edge="1" parent="1">
          <mxGeometry width="50" height="50" relative="1" as="geometry">
            <mxPoint x="560" y="280" as="sourcePoint" />
            <mxPoint x="560" y="520" as="targetPoint" />
          </mxGeometry>
        </mxCell>
        <mxCell id="-oYCFZrdIqtFmKI61Krr-54" value="" style="endArrow=none;dashed=1;html=1;dashPattern=1 3;strokeWidth=2;rounded=0;" edge="1" parent="1">
          <mxGeometry width="50" height="50" relative="1" as="geometry">
            <mxPoint x="320" y="280" as="sourcePoint" />
            <mxPoint x="560" y="280" as="targetPoint" />
          </mxGeometry>
        </mxCell>
        <mxCell id="-oYCFZrdIqtFmKI61Krr-55" value="" style="endArrow=none;dashed=1;html=1;dashPattern=1 3;strokeWidth=2;rounded=0;" edge="1" parent="1">
          <mxGeometry width="50" height="50" relative="1" as="geometry">
            <mxPoint x="79.16999999999996" y="280" as="sourcePoint" />
            <mxPoint x="79.16999999999996" y="40" as="targetPoint" />
          </mxGeometry>
        </mxCell>
        <mxCell id="-oYCFZrdIqtFmKI61Krr-56" value="" style="endArrow=none;dashed=1;html=1;dashPattern=1 3;strokeWidth=2;rounded=0;" edge="1" parent="1">
          <mxGeometry width="50" height="50" relative="1" as="geometry">
            <mxPoint x="79.16999999999996" y="280" as="sourcePoint" />
            <mxPoint x="319.16999999999996" y="280" as="targetPoint" />
          </mxGeometry>
        </mxCell>
        <mxCell id="-oYCFZrdIqtFmKI61Krr-57" value="" style="endArrow=none;dashed=1;html=1;dashPattern=1 3;strokeWidth=2;rounded=0;" edge="1" parent="1">
          <mxGeometry width="50" height="50" relative="1" as="geometry">
            <mxPoint x="319.16999999999996" y="40" as="sourcePoint" />
            <mxPoint x="319.16999999999996" y="280" as="targetPoint" />
          </mxGeometry>
        </mxCell>
        <mxCell id="-oYCFZrdIqtFmKI61Krr-58" value="" style="endArrow=none;dashed=1;html=1;dashPattern=1 3;strokeWidth=2;rounded=0;" edge="1" parent="1">
          <mxGeometry width="50" height="50" relative="1" as="geometry">
            <mxPoint x="79.16999999999996" y="40" as="sourcePoint" />
            <mxPoint x="319.16999999999996" y="40" as="targetPoint" />
          </mxGeometry>
        </mxCell>
        <mxCell id="-oYCFZrdIqtFmKI61Krr-59" value="" style="endArrow=none;dashed=1;html=1;dashPattern=1 3;strokeWidth=2;rounded=0;" edge="1" parent="1">
          <mxGeometry width="50" height="50" relative="1" as="geometry">
            <mxPoint x="79.16999999999996" y="520" as="sourcePoint" />
            <mxPoint x="79.16999999999996" y="280" as="targetPoint" />
          </mxGeometry>
        </mxCell>
        <mxCell id="-oYCFZrdIqtFmKI61Krr-60" value="" style="endArrow=none;dashed=1;html=1;dashPattern=1 3;strokeWidth=2;rounded=0;" edge="1" parent="1">
          <mxGeometry width="50" height="50" relative="1" as="geometry">
            <mxPoint x="79.16999999999996" y="520" as="sourcePoint" />
            <mxPoint x="319.16999999999996" y="520" as="targetPoint" />
          </mxGeometry>
        </mxCell>
        <mxCell id="-oYCFZrdIqtFmKI61Krr-61" value="" style="endArrow=none;dashed=1;html=1;dashPattern=1 3;strokeWidth=2;rounded=0;" edge="1" parent="1">
          <mxGeometry width="50" height="50" relative="1" as="geometry">
            <mxPoint x="319.16999999999996" y="280" as="sourcePoint" />
            <mxPoint x="319.16999999999996" y="520" as="targetPoint" />
          </mxGeometry>
        </mxCell>
        <mxCell id="-oYCFZrdIqtFmKI61Krr-62" value="" style="endArrow=none;dashed=1;html=1;dashPattern=1 3;strokeWidth=2;rounded=0;" edge="1" parent="1">
          <mxGeometry width="50" height="50" relative="1" as="geometry">
            <mxPoint x="79.16999999999996" y="280" as="sourcePoint" />
            <mxPoint x="319.16999999999996" y="280" as="targetPoint" />
          </mxGeometry>
        </mxCell>
        <mxCell id="-oYCFZrdIqtFmKI61Krr-63" value="&lt;h2 style=&quot;&quot;&gt;&lt;font face=&quot;Comic Sans MS&quot;&gt;&lt;font style=&quot;font-size: 19px;&quot;&gt;v&lt;/font&gt;&lt;font size=&quot;1&quot; style=&quot;&quot;&gt;&lt;sub&gt;6&lt;/sub&gt;&lt;/font&gt;&lt;/font&gt;&lt;/h2&gt;" style="text;html=1;strokeColor=none;fillColor=none;align=center;verticalAlign=middle;whiteSpace=wrap;rounded=0;" vertex="1" parent="1">
          <mxGeometry x="398" y="172.5" width="20" height="17.5" as="geometry" />
        </mxCell>
        <mxCell id="-oYCFZrdIqtFmKI61Krr-64" value="&lt;h2 style=&quot;&quot;&gt;&lt;font face=&quot;comic sans ms&quot; style=&quot;font-size: 19px;&quot;&gt;v&lt;/font&gt;&lt;font face=&quot;comic sans ms&quot; style=&quot;font-size: 15.8333px;&quot;&gt;&lt;sub&gt;7&lt;/sub&gt;&lt;/font&gt;&lt;/h2&gt;" style="text;html=1;strokeColor=none;fillColor=none;align=center;verticalAlign=middle;whiteSpace=wrap;rounded=0;" vertex="1" parent="1">
          <mxGeometry x="490" y="241.25" width="20" height="17.5" as="geometry" />
        </mxCell>
        <mxCell id="-oYCFZrdIqtFmKI61Krr-65" value="" style="ellipse;whiteSpace=wrap;html=1;aspect=fixed;fillColor=#fff2cc;strokeColor=#d6b656;" vertex="1" parent="1">
          <mxGeometry x="122" y="117" width="40" height="40" as="geometry" />
        </mxCell>
        <mxCell id="-oYCFZrdIqtFmKI61Krr-66" value="" style="ellipse;whiteSpace=wrap;html=1;aspect=fixed;fillColor=#fff2cc;strokeColor=#d6b656;" vertex="1" parent="1">
          <mxGeometry x="240" y="62.5" width="40" height="40" as="geometry" />
        </mxCell>
        <mxCell id="-oYCFZrdIqtFmKI61Krr-67" value="" style="ellipse;whiteSpace=wrap;html=1;aspect=fixed;fillColor=#fff2cc;strokeColor=#d6b656;" vertex="1" parent="1">
          <mxGeometry x="260" y="174" width="40" height="40" as="geometry" />
        </mxCell>
        <mxCell id="-oYCFZrdIqtFmKI61Krr-70" value="" style="endArrow=none;html=1;rounded=0;entryX=0.625;entryY=1;entryDx=0;entryDy=0;entryPerimeter=0;" edge="1" parent="1" target="-oYCFZrdIqtFmKI61Krr-65">
          <mxGeometry width="50" height="50" relative="1" as="geometry">
            <mxPoint x="158" y="178" as="sourcePoint" />
            <mxPoint x="150" y="98" as="targetPoint" />
          </mxGeometry>
        </mxCell>
        <mxCell id="-oYCFZrdIqtFmKI61Krr-72" value="" style="endArrow=none;html=1;rounded=0;exitX=1;exitY=0;exitDx=0;exitDy=0;entryX=0;entryY=0.75;entryDx=0;entryDy=0;" edge="1" parent="1" source="-oYCFZrdIqtFmKI61Krr-65" target="-oYCFZrdIqtFmKI61Krr-111">
          <mxGeometry width="50" height="50" relative="1" as="geometry">
            <mxPoint x="310" y="290" as="sourcePoint" />
            <mxPoint x="179" y="112" as="targetPoint" />
          </mxGeometry>
        </mxCell>
        <mxCell id="-oYCFZrdIqtFmKI61Krr-73" value="&lt;h2 style=&quot;font-size: 19px;&quot;&gt;&lt;font face=&quot;comic sans ms&quot; style=&quot;font-size: 19px;&quot;&gt;v&lt;sub&gt;0&lt;/sub&gt;&lt;/font&gt;&lt;/h2&gt;" style="text;html=1;strokeColor=none;fillColor=none;align=center;verticalAlign=middle;whiteSpace=wrap;rounded=0;" vertex="1" parent="1">
          <mxGeometry x="132" y="128.25" width="20" height="17.5" as="geometry" />
        </mxCell>
        <mxCell id="-oYCFZrdIqtFmKI61Krr-74" value="&lt;h2 style=&quot;&quot;&gt;&lt;font face=&quot;Comic Sans MS&quot;&gt;&lt;font style=&quot;font-size: 19px;&quot;&gt;v&lt;/font&gt;&lt;font style=&quot;font-size: 10.9953px;&quot;&gt;&lt;sub style=&quot;&quot;&gt;2&lt;/sub&gt;&lt;/font&gt;&lt;/font&gt;&lt;/h2&gt;" style="text;html=1;strokeColor=none;fillColor=none;align=center;verticalAlign=middle;whiteSpace=wrap;rounded=0;" vertex="1" parent="1">
          <mxGeometry x="24" y="244" width="20" height="17.5" as="geometry" />
        </mxCell>
        <mxCell id="-oYCFZrdIqtFmKI61Krr-75" value="&lt;h2 style=&quot;font-size: 19px;&quot;&gt;&lt;font style=&quot;font-size: 19px;&quot;&gt;v&lt;sub style=&quot;&quot;&gt;1&lt;/sub&gt;&lt;/font&gt;&lt;/h2&gt;" style="text;html=1;strokeColor=none;fillColor=none;align=center;verticalAlign=middle;whiteSpace=wrap;rounded=0;fontFamily=Comic Sans MS;" vertex="1" parent="1">
          <mxGeometry x="250" y="73.75" width="20" height="17.5" as="geometry" />
        </mxCell>
        <mxCell id="-oYCFZrdIqtFmKI61Krr-79" value="&lt;h1&gt;&lt;font face=&quot;Comic Sans MS&quot;&gt;D&lt;sub&gt;1&lt;/sub&gt;&lt;/font&gt;&lt;/h1&gt;&lt;p&gt;&lt;br&gt;&lt;/p&gt;" style="text;html=1;strokeColor=none;fillColor=none;spacing=5;spacingTop=-20;whiteSpace=wrap;overflow=hidden;rounded=0;" vertex="1" parent="1">
          <mxGeometry x="87" y="241.25" width="49" height="44" as="geometry" />
        </mxCell>
        <mxCell id="-oYCFZrdIqtFmKI61Krr-80" value="&lt;h1&gt;&lt;font face=&quot;Comic Sans MS&quot;&gt;D&lt;span style=&quot;font-size: 20px;&quot;&gt;&lt;sub&gt;2&lt;/sub&gt;&lt;/span&gt;&lt;/font&gt;&lt;/h1&gt;&lt;p&gt;&lt;br&gt;&lt;/p&gt;" style="text;html=1;strokeColor=none;fillColor=none;spacing=5;spacingTop=-20;whiteSpace=wrap;overflow=hidden;rounded=0;" vertex="1" parent="1">
          <mxGeometry x="328" y="240" width="49" height="44" as="geometry" />
        </mxCell>
        <mxCell id="-oYCFZrdIqtFmKI61Krr-81" value="&lt;h1&gt;&lt;font face=&quot;Comic Sans MS&quot;&gt;D&lt;span style=&quot;font-size: 20px;&quot;&gt;&lt;sub&gt;3&lt;/sub&gt;&lt;/span&gt;&lt;/font&gt;&lt;/h1&gt;&lt;p&gt;&lt;br&gt;&lt;/p&gt;" style="text;html=1;strokeColor=none;fillColor=none;spacing=5;spacingTop=-20;whiteSpace=wrap;overflow=hidden;rounded=0;" vertex="1" parent="1">
          <mxGeometry x="568" y="240" width="49" height="44" as="geometry" />
        </mxCell>
        <mxCell id="-oYCFZrdIqtFmKI61Krr-82" value="&lt;h1&gt;&lt;font face=&quot;Comic Sans MS&quot;&gt;D&lt;span style=&quot;font-size: 20px;&quot;&gt;&lt;sub&gt;4&lt;/sub&gt;&lt;/span&gt;&lt;/font&gt;&lt;/h1&gt;&lt;p&gt;&lt;br&gt;&lt;/p&gt;" style="text;html=1;strokeColor=none;fillColor=none;spacing=5;spacingTop=-20;whiteSpace=wrap;overflow=hidden;rounded=0;" vertex="1" parent="1">
          <mxGeometry x="87" y="477" width="49" height="44" as="geometry" />
        </mxCell>
        <mxCell id="-oYCFZrdIqtFmKI61Krr-83" value="&lt;h1&gt;&lt;font face=&quot;Comic Sans MS&quot;&gt;D&lt;span style=&quot;font-size: 20px;&quot;&gt;&lt;sub&gt;5&lt;/sub&gt;&lt;/span&gt;&lt;/font&gt;&lt;/h1&gt;&lt;p&gt;&lt;br&gt;&lt;/p&gt;" style="text;html=1;strokeColor=none;fillColor=none;spacing=5;spacingTop=-20;whiteSpace=wrap;overflow=hidden;rounded=0;" vertex="1" parent="1">
          <mxGeometry x="331" y="477" width="49" height="44" as="geometry" />
        </mxCell>
        <mxCell id="-oYCFZrdIqtFmKI61Krr-84" value="&lt;h1&gt;&lt;font face=&quot;Comic Sans MS&quot;&gt;D&lt;span style=&quot;font-size: 20px;&quot;&gt;&lt;sub&gt;6&lt;/sub&gt;&lt;/span&gt;&lt;/font&gt;&lt;/h1&gt;&lt;p&gt;&lt;br&gt;&lt;/p&gt;" style="text;html=1;strokeColor=none;fillColor=none;spacing=5;spacingTop=-20;whiteSpace=wrap;overflow=hidden;rounded=0;" vertex="1" parent="1">
          <mxGeometry x="568" y="469" width="49" height="44" as="geometry" />
        </mxCell>
        <mxCell id="-oYCFZrdIqtFmKI61Krr-88" value="" style="endArrow=none;html=1;rounded=0;exitX=1;exitY=0.5;exitDx=0;exitDy=0;entryX=0.072;entryY=0.321;entryDx=0;entryDy=0;strokeWidth=3;fillColor=#d80073;strokeColor=#A50040;entryPerimeter=0;" edge="1" parent="1" source="-oYCFZrdIqtFmKI61Krr-14" target="-oYCFZrdIqtFmKI61Krr-17">
          <mxGeometry width="50" height="50" relative="1" as="geometry">
            <mxPoint x="459" y="178.75" as="sourcePoint" />
            <mxPoint x="559" y="178.75" as="targetPoint" />
          </mxGeometry>
        </mxCell>
        <mxCell id="-oYCFZrdIqtFmKI61Krr-90" value="" style="endArrow=none;html=1;rounded=0;exitX=1;exitY=0.5;exitDx=0;exitDy=0;entryX=0;entryY=0.5;entryDx=0;entryDy=0;strokeWidth=3;fillColor=#d80073;strokeColor=#A50040;" edge="1" parent="1" target="-oYCFZrdIqtFmKI61Krr-13">
          <mxGeometry width="50" height="50" relative="1" as="geometry">
            <mxPoint x="280" y="77" as="sourcePoint" />
            <mxPoint x="513" y="110" as="targetPoint" />
          </mxGeometry>
        </mxCell>
        <mxCell id="-oYCFZrdIqtFmKI61Krr-91" value="" style="endArrow=none;html=1;rounded=0;exitX=1;exitY=0.5;exitDx=0;exitDy=0;entryX=0;entryY=0.5;entryDx=0;entryDy=0;strokeWidth=3;fillColor=#d80073;strokeColor=#A50040;" edge="1" parent="1" source="-oYCFZrdIqtFmKI61Krr-67" target="-oYCFZrdIqtFmKI61Krr-14">
          <mxGeometry width="50" height="50" relative="1" as="geometry">
            <mxPoint x="290" y="241.25" as="sourcePoint" />
            <mxPoint x="523" y="274.25" as="targetPoint" />
          </mxGeometry>
        </mxCell>
        <mxCell id="-oYCFZrdIqtFmKI61Krr-93" value="" style="endArrow=none;html=1;rounded=0;entryX=0.5;entryY=1;entryDx=0;entryDy=0;exitX=0.333;exitY=0.032;exitDx=0;exitDy=0;exitPerimeter=0;" edge="1" parent="1" source="-oYCFZrdIqtFmKI61Krr-67" target="-oYCFZrdIqtFmKI61Krr-66">
          <mxGeometry width="50" height="50" relative="1" as="geometry">
            <mxPoint x="272" y="161" as="sourcePoint" />
            <mxPoint x="256" y="78" as="targetPoint" />
          </mxGeometry>
        </mxCell>
        <mxCell id="-oYCFZrdIqtFmKI61Krr-95" value="&lt;h2 style=&quot;&quot;&gt;&lt;font face=&quot;Comic Sans MS&quot;&gt;&lt;font style=&quot;font-size: 19px;&quot;&gt;v&lt;/font&gt;&lt;font style=&quot;font-size: 15.8333px;&quot;&gt;&lt;sub style=&quot;&quot;&gt;3&lt;/sub&gt;&lt;/font&gt;&lt;/font&gt;&lt;/h2&gt;" style="text;html=1;strokeColor=none;fillColor=none;align=center;verticalAlign=middle;whiteSpace=wrap;rounded=0;" vertex="1" parent="1">
          <mxGeometry x="277" y="189.63" width="6" height="8.75" as="geometry" />
        </mxCell>
        <mxCell id="-oYCFZrdIqtFmKI61Krr-96" value="" style="endArrow=none;html=1;rounded=0;entryX=0;entryY=1;entryDx=0;entryDy=0;exitX=1;exitY=0.5;exitDx=0;exitDy=0;" edge="1" parent="1" source="-oYCFZrdIqtFmKI61Krr-77" target="-oYCFZrdIqtFmKI61Krr-67">
          <mxGeometry width="50" height="50" relative="1" as="geometry">
            <mxPoint x="222" y="241.25" as="sourcePoint" />
            <mxPoint x="316" y="197.25" as="targetPoint" />
          </mxGeometry>
        </mxCell>
        <mxCell id="-oYCFZrdIqtFmKI61Krr-97" value="&lt;h2 style=&quot;&quot;&gt;&lt;font style=&quot;font-size: 19px;&quot;&gt;v&lt;/font&gt;&lt;font style=&quot;font-size: 15.8333px;&quot;&gt;&lt;sub&gt;5&lt;/sub&gt;&lt;/font&gt;&lt;/h2&gt;" style="text;html=1;strokeColor=none;fillColor=none;align=center;verticalAlign=middle;whiteSpace=wrap;rounded=0;fontFamily=Comic Sans MS;" vertex="1" parent="1">
          <mxGeometry x="460" y="90" width="20" height="17.5" as="geometry" />
        </mxCell>
        <mxCell id="-oYCFZrdIqtFmKI61Krr-98" value="" style="ellipse;whiteSpace=wrap;html=1;aspect=fixed;fillColor=#e1d5e7;strokeColor=#9673a6;" vertex="1" parent="1">
          <mxGeometry x="200" y="309" width="40" height="40" as="geometry" />
        </mxCell>
        <mxCell id="-oYCFZrdIqtFmKI61Krr-99" value="" style="ellipse;whiteSpace=wrap;html=1;aspect=fixed;fillColor=#e1d5e7;strokeColor=#9673a6;" vertex="1" parent="1">
          <mxGeometry x="112" y="309" width="40" height="40" as="geometry" />
        </mxCell>
        <mxCell id="-oYCFZrdIqtFmKI61Krr-100" value="" style="ellipse;whiteSpace=wrap;html=1;aspect=fixed;fillColor=#e1d5e7;strokeColor=#9673a6;" vertex="1" parent="1">
          <mxGeometry x="197" y="401" width="40" height="40" as="geometry" />
        </mxCell>
        <mxCell id="-oYCFZrdIqtFmKI61Krr-101" value="" style="ellipse;whiteSpace=wrap;html=1;aspect=fixed;fillColor=#e1d5e7;strokeColor=#9673a6;" vertex="1" parent="1">
          <mxGeometry x="112" y="401" width="40" height="40" as="geometry" />
        </mxCell>
        <mxCell id="-oYCFZrdIqtFmKI61Krr-105" value="" style="ellipse;whiteSpace=wrap;html=1;aspect=fixed;fillColor=#f5f5f5;strokeColor=#666666;fontColor=#333333;" vertex="1" parent="1">
          <mxGeometry x="499" y="371" width="40" height="40" as="geometry" />
        </mxCell>
        <mxCell id="-oYCFZrdIqtFmKI61Krr-106" value="" style="ellipse;whiteSpace=wrap;html=1;aspect=fixed;fillColor=#f5f5f5;strokeColor=#666666;fontColor=#333333;" vertex="1" parent="1">
          <mxGeometry x="418" y="306" width="40" height="40" as="geometry" />
        </mxCell>
        <mxCell id="-oYCFZrdIqtFmKI61Krr-107" value="" style="ellipse;whiteSpace=wrap;html=1;aspect=fixed;fillColor=#f5f5f5;strokeColor=#666666;fontColor=#333333;" vertex="1" parent="1">
          <mxGeometry x="420" y="441" width="40" height="40" as="geometry" />
        </mxCell>
        <mxCell id="-oYCFZrdIqtFmKI61Krr-108" value="" style="ellipse;whiteSpace=wrap;html=1;aspect=fixed;fillColor=#f5f5f5;strokeColor=#666666;fontColor=#333333;" vertex="1" parent="1">
          <mxGeometry x="342" y="401" width="40" height="40" as="geometry" />
        </mxCell>
        <mxCell id="-oYCFZrdIqtFmKI61Krr-110" value="" style="endArrow=none;html=1;rounded=0;strokeWidth=3;fillColor=#d80073;strokeColor=#A50040;exitX=0.339;exitY=-0.001;exitDx=0;exitDy=0;exitPerimeter=0;entryX=0.5;entryY=1;entryDx=0;entryDy=0;" edge="1" parent="1" source="-oYCFZrdIqtFmKI61Krr-106" target="-oYCFZrdIqtFmKI61Krr-14">
          <mxGeometry width="50" height="50" relative="1" as="geometry">
            <mxPoint x="400" y="250" as="sourcePoint" />
            <mxPoint x="399" y="220" as="targetPoint" />
          </mxGeometry>
        </mxCell>
        <mxCell id="-oYCFZrdIqtFmKI61Krr-111" value="&lt;font size=&quot;1&quot; face=&quot;Comic Sans MS&quot;&gt;&lt;b style=&quot;font-size: 19px;&quot;&gt;1&lt;/b&gt;&lt;/font&gt;" style="text;html=1;strokeColor=none;fillColor=none;align=center;verticalAlign=middle;whiteSpace=wrap;rounded=0;" vertex="1" parent="1">
          <mxGeometry x="185" y="98" width="17" height="14.5" as="geometry" />
        </mxCell>
        <mxCell id="-oYCFZrdIqtFmKI61Krr-112" value="" style="endArrow=none;html=1;rounded=0;entryX=0;entryY=0.5;entryDx=0;entryDy=0;" edge="1" parent="1" source="-oYCFZrdIqtFmKI61Krr-111" target="-oYCFZrdIqtFmKI61Krr-66">
          <mxGeometry width="50" height="50" relative="1" as="geometry">
            <mxPoint x="200.5" y="105" as="sourcePoint" />
            <mxPoint x="233.5" y="90" as="targetPoint" />
          </mxGeometry>
        </mxCell>
        <mxCell id="-oYCFZrdIqtFmKI61Krr-113" value="" style="ellipse;whiteSpace=wrap;html=1;aspect=fixed;fillColor=#d5e8d4;strokeColor=#82b366;" vertex="1" parent="1">
          <mxGeometry x="750" y="371" width="40" height="40" as="geometry" />
        </mxCell>
        <mxCell id="-oYCFZrdIqtFmKI61Krr-114" value="" style="ellipse;whiteSpace=wrap;html=1;aspect=fixed;fillColor=#d5e8d4;strokeColor=#82b366;" vertex="1" parent="1">
          <mxGeometry x="668" y="309" width="40" height="40" as="geometry" />
        </mxCell>
        <mxCell id="-oYCFZrdIqtFmKI61Krr-115" value="" style="ellipse;whiteSpace=wrap;html=1;aspect=fixed;fillColor=#d5e8d4;strokeColor=#82b366;" vertex="1" parent="1">
          <mxGeometry x="692" y="461" width="40" height="40" as="geometry" />
        </mxCell>
        <mxCell id="-oYCFZrdIqtFmKI61Krr-119" value="" style="endArrow=none;html=1;rounded=0;entryX=0.072;entryY=0.699;entryDx=0;entryDy=0;entryPerimeter=0;exitX=1;exitY=0.5;exitDx=0;exitDy=0;" edge="1" parent="1" source="-oYCFZrdIqtFmKI61Krr-16" target="-oYCFZrdIqtFmKI61Krr-17">
          <mxGeometry width="50" height="50" relative="1" as="geometry">
            <mxPoint x="515" y="247" as="sourcePoint" />
            <mxPoint x="441" y="201" as="targetPoint" />
          </mxGeometry>
        </mxCell>
        <mxCell id="-oYCFZrdIqtFmKI61Krr-121" value="" style="endArrow=none;html=1;rounded=0;exitX=1;exitY=0.5;exitDx=0;exitDy=0;strokeWidth=3;fillColor=#d80073;strokeColor=#A50040;entryX=0;entryY=0.5;entryDx=0;entryDy=0;" edge="1" parent="1" source="-oYCFZrdIqtFmKI61Krr-100" target="-oYCFZrdIqtFmKI61Krr-108">
          <mxGeometry width="50" height="50" relative="1" as="geometry">
            <mxPoint x="304" y="218" as="sourcePoint" />
            <mxPoint x="352" y="416" as="targetPoint" />
          </mxGeometry>
        </mxCell>
        <mxCell id="-oYCFZrdIqtFmKI61Krr-122" value="" style="endArrow=none;html=1;rounded=0;entryX=1;entryY=1;entryDx=0;entryDy=0;exitX=0;exitY=0.5;exitDx=0;exitDy=0;" edge="1" parent="1" source="-oYCFZrdIqtFmKI61Krr-107" target="-oYCFZrdIqtFmKI61Krr-108">
          <mxGeometry width="50" height="50" relative="1" as="geometry">
            <mxPoint x="407" y="479" as="sourcePoint" />
            <mxPoint x="317" y="469" as="targetPoint" />
          </mxGeometry>
        </mxCell>
        <mxCell id="-oYCFZrdIqtFmKI61Krr-123" value="" style="endArrow=none;html=1;rounded=0;entryX=1;entryY=0.5;entryDx=0;entryDy=0;exitX=0;exitY=0.5;exitDx=0;exitDy=0;" edge="1" parent="1" source="-oYCFZrdIqtFmKI61Krr-98">
          <mxGeometry width="50" height="50" relative="1" as="geometry">
            <mxPoint x="242" y="338" as="sourcePoint" />
            <mxPoint x="152" y="328" as="targetPoint" />
          </mxGeometry>
        </mxCell>
        <mxCell id="-oYCFZrdIqtFmKI61Krr-124" value="" style="endArrow=none;html=1;rounded=0;entryX=0;entryY=1;entryDx=0;entryDy=0;exitX=1;exitY=0;exitDx=0;exitDy=0;" edge="1" parent="1" source="-oYCFZrdIqtFmKI61Krr-108" target="-oYCFZrdIqtFmKI61Krr-106">
          <mxGeometry width="50" height="50" relative="1" as="geometry">
            <mxPoint x="430" y="471" as="sourcePoint" />
            <mxPoint x="386" y="445" as="targetPoint" />
          </mxGeometry>
        </mxCell>
        <mxCell id="-oYCFZrdIqtFmKI61Krr-125" value="" style="endArrow=none;html=1;rounded=0;exitX=0.678;exitY=0.035;exitDx=0;exitDy=0;strokeWidth=3;fillColor=#d80073;strokeColor=#A50040;exitPerimeter=0;" edge="1" parent="1" source="-oYCFZrdIqtFmKI61Krr-98">
          <mxGeometry width="50" height="50" relative="1" as="geometry">
            <mxPoint x="310" y="204" as="sourcePoint" />
            <mxPoint x="247" y="272" as="targetPoint" />
          </mxGeometry>
        </mxCell>
        <mxCell id="-oYCFZrdIqtFmKI61Krr-126" value="&lt;font color=&quot;#a50040&quot; style=&quot;font-size: 19px;&quot; face=&quot;Comic Sans MS&quot;&gt;&lt;b&gt;2&lt;/b&gt;&lt;/font&gt;" style="text;html=1;strokeColor=none;fillColor=none;align=center;verticalAlign=middle;whiteSpace=wrap;rounded=0;" vertex="1" parent="1">
          <mxGeometry x="240" y="252" width="23" height="18" as="geometry" />
        </mxCell>
        <mxCell id="-oYCFZrdIqtFmKI61Krr-127" value="" style="endArrow=none;html=1;rounded=0;exitX=0.75;exitY=0;exitDx=0;exitDy=0;strokeWidth=3;fillColor=#d80073;strokeColor=#A50040;entryX=0.333;entryY=0.988;entryDx=0;entryDy=0;entryPerimeter=0;" edge="1" parent="1" source="-oYCFZrdIqtFmKI61Krr-126" target="-oYCFZrdIqtFmKI61Krr-67">
          <mxGeometry width="50" height="50" relative="1" as="geometry">
            <mxPoint x="237" y="320" as="sourcePoint" />
            <mxPoint x="288" y="244" as="targetPoint" />
          </mxGeometry>
        </mxCell>
        <mxCell id="-oYCFZrdIqtFmKI61Krr-130" value="&lt;font size=&quot;1&quot; face=&quot;Comic Sans MS&quot;&gt;&lt;b style=&quot;font-size: 19px;&quot;&gt;2&lt;/b&gt;&lt;/font&gt;" style="text;html=1;strokeColor=none;fillColor=none;align=center;verticalAlign=middle;whiteSpace=wrap;rounded=0;" vertex="1" parent="1">
          <mxGeometry x="226" y="149.25" width="17" height="14.5" as="geometry" />
        </mxCell>
        <mxCell id="-oYCFZrdIqtFmKI61Krr-131" value="" style="endArrow=none;html=1;rounded=0;exitX=0.75;exitY=1;exitDx=0;exitDy=0;entryX=0;entryY=0;entryDx=0;entryDy=0;" edge="1" parent="1" source="-oYCFZrdIqtFmKI61Krr-130" target="-oYCFZrdIqtFmKI61Krr-77">
          <mxGeometry width="50" height="50" relative="1" as="geometry">
            <mxPoint x="212" y="111" as="sourcePoint" />
            <mxPoint x="192" y="187" as="targetPoint" />
          </mxGeometry>
        </mxCell>
      </root>
    </mxGraphModel>
  </diagram>
</mxfile>
